<?xml version="1.0" encoding="utf-8"?>
<!-- Generator: Adobe Illustrator 24.1.0, SVG Export Plug-In . SVG Version: 6.00 Build 0)  -->
<svg version="1.1" id="图层_1" xmlns="http://www.w3.org/2000/svg" xmlns:xlink="http://www.w3.org/1999/xlink" x="0px" y="0px"
	 viewBox="0 0 32 32" style="enable-background:new 0 0 32 32;" xml:space="preserve">
<style type="text/css">
	.st0{fill-rule:evenodd;clip-rule:evenodd;fill:#C1A766;}
</style>
<path id="形状_18_1_" class="st0" d="M6.5,8.8l2-3.2l0,0c0.9-1.5,2.9-1.9,4.4-1c0.4,0.3,0.7,0.6,1,1h4.2c0.9-1.5,2.9-1.9,4.4-1
	c0.4,0.3,0.7,0.6,1,1l0,0l2,3.2c-0.6-0.2-1.3-0.3-2-0.3c-2.1,0-4,1.1-5.1,2.8h-4.7c-1.1-1.8-3-2.8-5.1-2.8C7.9,8.5,7.2,8.6,6.5,8.8z
	 M31.8,21.1c0,3.9-3.1,7.1-7.1,7.1c-2.4,0-4.7-1.2-6-3.3c-1.1,1.5-3.3,1.8-4.8,0.7c-0.3-0.2-0.5-0.4-0.7-0.7
	c-2.1,3.3-6.5,4.3-9.8,2.1s-4.3-6.5-2.1-9.8l0,0l3.8-6.1C7,9.3,10,9.2,11.9,11.1c0.3,0.3,0.6,0.7,0.9,1.1l0.2,0.3H19l0.2-0.3
	c1.3-2.4,4.2-3.2,6.6-1.9c0.4,0.2,0.8,0.5,1.1,0.8l3.8,6.2l0,0C31.4,18.4,31.8,19.8,31.8,21.1z M11.7,21.1c0-2.4-2-4.4-4.4-4.4
	c-2.4,0-4.4,2-4.4,4.4c0,2.4,2,4.4,4.4,4.4C9.7,25.6,11.7,23.6,11.7,21.1C11.7,21.1,11.7,21.1,11.7,21.1z M17.6,22.9
	c0-0.9-0.7-1.6-1.6-1.6c-0.9,0-1.6,0.7-1.6,1.6c0,0.9,0.7,1.6,1.6,1.6C16.9,24.6,17.6,23.8,17.6,22.9C17.6,22.9,17.6,22.9,17.6,22.9
	L17.6,22.9z M29.2,21.1c0-2.4-2-4.4-4.4-4.4c-2.4,0-4.4,2-4.4,4.4c0,2.4,2,4.4,4.4,4.4C27.2,25.6,29.2,23.6,29.2,21.1
	C29.2,21.1,29.2,21.1,29.2,21.1z"/>
</svg>
