<?xml version="1.0" encoding="utf-8"?>
<!-- Generator: Adobe Illustrator 24.1.0, SVG Export Plug-In . SVG Version: 6.00 Build 0)  -->
<svg version="1.1" id="图层_1" xmlns="http://www.w3.org/2000/svg" xmlns:xlink="http://www.w3.org/1999/xlink" x="0px" y="0px"
	 viewBox="0 0 1024 1024" style="enable-background:new 0 0 1024 1024;" xml:space="preserve">
<style type="text/css">
	.st0{fill-rule:evenodd;clip-rule:evenodd;}
</style>
<path class="st0" d="M814.3,526.2l-290.2,405c-2.9,4.1-7.4,6.5-12.2,6.5s-9.3-2.3-12.2-6.5l-290.2-405c-2.1-3-3.2-6.5-3.2-10.1
	c0-3.5,1-7,3.1-9.9c4.1-5.9,11.5-8.2,17.9-5.4l192.1,81.5V104.8c0-9.1,6.9-16.5,15.4-16.5h154c8.6,0,15.4,7.4,15.4,16.5l0,477.3
	l192.2-81.5c6.5-2.7,13.8-0.5,18,5.4C818.5,512.1,818.5,520.3,814.3,526.2z"/>
</svg>
