<?xml version="1.0" encoding="utf-8"?>
<!-- Generator: Adobe Illustrator 24.1.0, SVG Export Plug-In . SVG Version: 6.00 Build 0)  -->
<svg version="1.1" id="图层_1" xmlns="http://www.w3.org/2000/svg" xmlns:xlink="http://www.w3.org/1999/xlink" x="0px" y="0px"
	 viewBox="0 0 200 200" style="enable-background:new 0 0 200 200;" xml:space="preserve">
<style type="text/css">
	.st0{fill-rule:evenodd;clip-rule:evenodd;}
</style>
<path d="M37.5,50H125v12.5H37.5V50z M96.5,87.5C93,91.1,90,95.4,87.6,100H37.5V87.5H96.5z M81.5,125.6c0,4,0.4,8,1.3,11.9H37.5V125
	h44V125.6z"/>
<path d="M12.5,25v150H111c-6-3.1-11.3-7.4-15.6-12.5H27.8v-125h107v32c1-0.1,2-0.1,3-0.1c4.3,0,8.3,0.5,12.2,1.4V25H12.5z"/>
<path class="st0" d="M189.7,137.7c-2.2,2.8-8.3,9.9-17.9,16.1c-9.7,6.3-19.6,9.4-29.4,9.4c-9.8,0-19.6-3.2-29.3-9.4
	c-9.6-6.2-15.7-13.3-17.9-16.1l0,0l0,0c-2.9-3.8-4.5-8-4.6-12.4v-0.5c0.1-4.4,1.7-8.8,4.6-12.5l0,0l0,0c2.2-2.8,8.3-9.9,17.9-16.1
	c9.7-6.3,19.6-9.4,29.4-9.4c9.8,0,19.6,3.2,29.3,9.4c9.6,6.2,15.7,13.3,17.9,16.1c2.9,3.7,4.6,8,4.7,12.4l0,0.2v0.2
	C194.3,129.6,192.6,134,189.7,137.7z M180.3,119.3c-1.4-1.8-6.7-8.1-15-13.5c-7.7-5-15.4-7.5-22.8-7.5c-7.4,0-15.1,2.5-22.8,7.5
	c-8.3,5.4-13.6,11.6-15,13.5c-1.4,1.8-2.2,3.8-2.2,5.7c0.1,1.9,0.8,3.8,2.2,5.6c1.4,1.8,6.7,8.1,15,13.5c7.7,5,15.4,7.5,22.8,7.5
	c7.4,0,15.1-2.5,22.8-7.5c8.3-5.4,13.6-11.7,15-13.5c1.4-1.8,2.2-3.8,2.2-5.7C182.5,123,181.7,121.1,180.3,119.3z M142.4,144.4
	c-11,0-19.9-8.7-19.9-19.4v0c0-10.7,8.9-19.4,19.9-19.4c11,0,19.9,8.7,19.9,19.4c0,0,0,0,0,0C162.3,135.7,153.4,144.4,142.4,144.4z"
	/>
</svg>
