<?xml version="1.0" encoding="utf-8"?>
<!-- Generator: Adobe Illustrator 24.1.0, SVG Export Plug-In . SVG Version: 6.00 Build 0)  -->
<svg version="1.1" id="图层_1" xmlns="http://www.w3.org/2000/svg" xmlns:xlink="http://www.w3.org/1999/xlink" x="0px" y="0px"
	 viewBox="0 0 1024 1024" style="enable-background:new 0 0 1024 1024;" xml:space="preserve">
<style type="text/css">
	.st0{fill-rule:evenodd;clip-rule:evenodd;}
</style>
<path class="st0" d="M830.9,601.9c-48.9,0-88.5-39.9-88.5-89.1c0-49.2,39.6-89.1,88.5-89.1c48.9,0,88.5,39.9,88.5,89.1
	C919.5,562.1,879.8,601.9,830.9,601.9z M512.4,601.9c-48.9,0-88.5-39.9-88.5-89.1c0-49.2,39.6-89.1,88.5-89.1
	c48.9,0,88.5,39.9,88.5,89.1C600.9,562.1,561.3,601.9,512.4,601.9z M193.8,601.9c-48.9,0-88.5-39.9-88.5-89.1
	c0-49.2,39.6-89.1,88.5-89.1s88.5,39.9,88.5,89.1C282.3,562.1,242.7,601.9,193.8,601.9z"/>
</svg>
