<?xml version="1.0" encoding="utf-8"?>
<!-- Generator: Adobe Illustrator 24.1.0, SVG Export Plug-In . SVG Version: 6.00 Build 0)  -->
<svg version="1.1" id="图层_1" xmlns="http://www.w3.org/2000/svg" xmlns:xlink="http://www.w3.org/1999/xlink" x="0px" y="0px"
	 viewBox="0 0 61.6 61.6" style="enable-background:new 0 0 61.6 61.6;" xml:space="preserve">
<style type="text/css">
	.st0{fill-rule:evenodd;clip-rule:evenodd;fill:#CFB56A;}
	.st1{fill:#CFB56A;}
</style>
<path class="st0" d="M39.8,39c-0.3,0.3-0.8,0.3-1,0l-1-1c-0.3-0.3-0.3-0.8,0-1l0,0l4-4H27.5c-0.4,0-0.7-0.3-0.7-0.7v-1.5
	c0-0.4,0.3-0.7,0.7-0.7h14.1l-4-4c-0.3-0.3-0.3-0.8,0-1c0,0,0,0,0,0l1-1c0.3-0.3,0.8-0.3,1,0c0,0,0,0,0,0l7.5,7.5L39.8,39z"/>
<path class="st0" d="M48.9,25.1c-0.3,0.3-0.7,0.3-0.9,0L47,24.2c-0.3-0.3-0.3-0.7,0-0.9h0l3.6-3.6H37.8c-0.4,0-0.7-0.3-0.7-0.7v-1.3
	c0-0.4,0.3-0.7,0.7-0.7h12.8L47,13.4c-0.3-0.3-0.3-0.7,0-0.9c0,0,0,0,0,0l0.9-0.9c0.3-0.3,0.7-0.3,0.9,0c0,0,0,0,0,0l6.8,6.8
	L48.9,25.1z"/>
<path class="st0" d="M51,54.6c-0.4,0.4-1,0.4-1.4,0l-1.4-1.4c-0.4-0.4-0.4-1,0-1.4c0,0,0,0,0,0l5.3-5.3H22c-0.5,0-1-0.4-1-1v-2
	c0-0.5,0.4-1,1-1h31.4l-5.3-5.3c-0.4-0.4-0.4-1,0-1.4c0,0,0,0,0,0l1.4-1.4c0.4-0.4,1-0.4,1.4,0c0,0,0,0,0,0l10,10L51,54.6z"/>
<path class="st1" d="M36.4,50.3c-2.9,1.4-6.1,2.2-9.5,2.2c-12,0-21.7-9.7-21.7-21.7c0-12,9.7-21.7,21.7-21.7
	c5.6,0,10.8,2.2,14.6,5.7l3.2-2.8C40.1,7.7,33.8,5,26.9,5C12.6,5,1,16.6,1,30.9c0,14.3,11.6,25.9,25.9,25.9c5,0,9.7-1.5,13.7-4
	L36.4,50.3z"/>
</svg>
